HIERARCHY
ROOT Hips
{
    OFFSET   0.000000   0.000000   0.000000
    CHANNELS 6 Xposition Yposition Zposition Zrotation Xrotation Yrotation
    JOINT Chest
    {
        OFFSET   0.000000   8.007240   0.000000
        CHANNELS 3 Zrotation Xrotation Yrotation
        JOINT Chest2
        {
            OFFSET   0.000000  22.077100   0.000000
            CHANNELS 3 Zrotation Xrotation Yrotation
            JOINT Neck
            {
                OFFSET   0.000000  23.254800   0.000000
                CHANNELS 3 Zrotation Xrotation Yrotation
                JOINT Head
                {
                    OFFSET   0.000000  14.370000   1.956600
                    CHANNELS 3 Zrotation Xrotation Yrotation
                    End Site
                    {
                        OFFSET   0.000000  19.566000   0.000000
                    }
                }
            }
            JOINT LeftCollar
            {
                OFFSET   3.911900  19.017000  -0.467064
                CHANNELS 3 Zrotation Xrotation Yrotation
                JOINT LeftShoulder
                {
                    OFFSET  10.383700   0.000000   0.000000
                    CHANNELS 3 Zrotation Xrotation Yrotation
                    JOINT LeftElbow
                    {
                        OFFSET  26.662100   0.001476   0.000517
                        CHANNELS 3 Zrotation Xrotation Yrotation
                        JOINT LeftWrist
                        {
                            OFFSET  28.869000  -0.000025  -0.000106
                            CHANNELS 3 Zrotation Xrotation Yrotation
                            JOINT LeftFinger0
                            {
                                OFFSET   2.044660  -2.323460   3.252850
                                CHANNELS 3 Zrotation Xrotation Yrotation
                                JOINT LeftFinger01
                                {
                                    OFFSET   3.088130   0.000000   0.000000
                                    CHANNELS 3 Zrotation Xrotation Yrotation
                                    JOINT LeftFinger02
                                    {
                                        OFFSET   2.639460   0.000000   0.000000
                                        CHANNELS 3 Zrotation Xrotation Yrotation
                                        End Site
                                        {
                                            OFFSET   2.582190   0.000000   0.000000
                                        }
                                    }
                                }
                            }
                            JOINT LeftFinger1
                            {
                                OFFSET   8.364480   0.000000   3.252850
                                CHANNELS 3 Zrotation Xrotation Yrotation
                                JOINT LeftFinger11
                                {
                                    OFFSET   4.646930   0.000000   0.000000
                                    CHANNELS 3 Zrotation Xrotation Yrotation
                                    JOINT LeftFinger12
                                    {
                                        OFFSET   2.323460   0.000000   0.000000
                                        CHANNELS 3 Zrotation Xrotation Yrotation
                                        End Site
                                        {
                                            OFFSET   2.273050   0.000000   0.000000
                                        }
                                    }
                                }
                            }
                            JOINT LeftFinger2
                            {
                                OFFSET   8.364490   0.000015   1.078090
                                CHANNELS 3 Zrotation Xrotation Yrotation
                                JOINT LeftFinger21
                                {
                                    OFFSET   5.111620   0.000000   0.000000
                                    CHANNELS 3 Zrotation Xrotation Yrotation
                                    JOINT LeftFinger22
                                    {
                                        OFFSET   2.788160   0.000016   0.000000
                                        CHANNELS 3 Zrotation Xrotation Yrotation
                                        End Site
                                        {
                                            OFFSET   2.727660   0.000000   0.000000
                                        }
                                    }
                                }
                            }
                            JOINT LeftFinger3
                            {
                                OFFSET   7.899780   0.000017  -1.078090
                                CHANNELS 3 Zrotation Xrotation Yrotation
                                JOINT LeftFinger31
                                {
                                    OFFSET   4.646930   0.000000   0.000000
                                    CHANNELS 3 Zrotation Xrotation Yrotation
                                    JOINT LeftFinger32
                                    {
                                        OFFSET   2.323470   0.000000   0.000000
                                        CHANNELS 3 Zrotation Xrotation Yrotation
                                        End Site
                                        {
                                            OFFSET   2.273050   0.000000   0.000000
                                        }
                                    }
                                }
                            }
                            JOINT LeftFinger4
                            {
                                OFFSET   7.435090   0.000000  -3.252850
                                CHANNELS 3 Zrotation Xrotation Yrotation
                                JOINT LeftFinger41
                                {
                                    OFFSET   3.717550   0.000000   0.000000
                                    CHANNELS 3 Zrotation Xrotation Yrotation
                                    JOINT LeftFinger42
                                    {
                                        OFFSET   1.858770   0.000000   0.000000
                                        CHANNELS 3 Zrotation Xrotation Yrotation
                                        End Site
                                        {
                                            OFFSET   1.818440   0.000000   0.000000
                                        }
                                    }
                                }
                            }
                        }
                    }
                }
            }
            JOINT RightCollar
            {
                OFFSET  -3.911900  19.017000  -0.467063
                CHANNELS 3 Zrotation Xrotation Yrotation
                JOINT RightShoulder
                {
                    OFFSET -10.383700   0.000019   0.000000
                    CHANNELS 3 Zrotation Xrotation Yrotation
                    JOINT RightElbow
                    {
                        OFFSET -26.662100   0.001175   0.000102
                        CHANNELS 3 Zrotation Xrotation Yrotation
                        JOINT RightWrist
                        {
                            OFFSET -28.869000   0.000016  -0.000079
                            CHANNELS 3 Zrotation Xrotation Yrotation
                            JOINT RightFinger0
                            {
                                OFFSET  -2.044660  -2.323490   3.252850
                                CHANNELS 3 Zrotation Xrotation Yrotation
                                JOINT RightFinger01
                                {
                                    OFFSET  -3.088140   0.000000   0.000000
                                    CHANNELS 3 Zrotation Xrotation Yrotation
                                    JOINT RightFinger02
                                    {
                                        OFFSET  -2.639460   0.000000   0.000000
                                        CHANNELS 3 Zrotation Xrotation Yrotation
                                        End Site
                                        {
                                            OFFSET  -2.582190   0.000000   0.000000
                                        }
                                    }
                                }
                            }
                            JOINT RightFinger1
                            {
                                OFFSET  -8.364480   0.000000   3.252850
                                CHANNELS 3 Zrotation Xrotation Yrotation
                                JOINT RightFinger11
                                {
                                    OFFSET  -4.646930   0.000000   0.000000
                                    CHANNELS 3 Zrotation Xrotation Yrotation
                                    JOINT RightFinger12
                                    {
                                        OFFSET  -2.323470   0.000000   0.000000
                                        CHANNELS 3 Zrotation Xrotation Yrotation
                                        End Site
                                        {
                                            OFFSET  -2.273050   0.000000   0.000000
                                        }
                                    }
                                }
                            }
                            JOINT RightFinger2
                            {
                                OFFSET  -8.364480   0.000000   1.078090
                                CHANNELS 3 Zrotation Xrotation Yrotation
                                JOINT RightFinger21
                                {
                                    OFFSET  -5.111620   0.000000   0.000000
                                    CHANNELS 3 Zrotation Xrotation Yrotation
                                    JOINT RightFinger22
                                    {
                                        OFFSET  -2.788160   0.000000   0.000000
                                        CHANNELS 3 Zrotation Xrotation Yrotation
                                        End Site
                                        {
                                            OFFSET  -2.727660   0.000000   0.000000
                                        }
                                    }
                                }
                            }
                            JOINT RightFinger3
                            {
                                OFFSET  -7.899780   0.000000  -1.078090
                                CHANNELS 3 Zrotation Xrotation Yrotation
                                JOINT RightFinger31
                                {
                                    OFFSET  -4.646930   0.000000   0.000000
                                    CHANNELS 3 Zrotation Xrotation Yrotation
                                    JOINT RightFinger32
                                    {
                                        OFFSET  -2.323470   0.000000   0.000000
                                        CHANNELS 3 Zrotation Xrotation Yrotation
                                        End Site
                                        {
                                            OFFSET  -2.273050   0.000000   0.000000
                                        }
                                    }
                                }
                            }
                            JOINT RightFinger4
                            {
                                OFFSET  -7.435090   0.000000  -3.252850
                                CHANNELS 3 Zrotation Xrotation Yrotation
                                JOINT RightFinger41
                                {
                                    OFFSET  -3.717550   0.000000   0.000000
                                    CHANNELS 3 Zrotation Xrotation Yrotation
                                    JOINT RightFinger42
                                    {
                                        OFFSET  -1.858770   0.000000   0.000000
                                        CHANNELS 3 Zrotation Xrotation Yrotation
                                        End Site
                                        {
                                            OFFSET  -1.818440   0.000000   0.000000
                                        }
                                    }
                                }
                            }
                        }
                    }
                }
            }
        }
    }
    JOINT LeftHip
    {
        OFFSET   9.783040   0.000000   0.000000
        CHANNELS 3 Zrotation Xrotation Yrotation
        JOINT LeftKnee
        {
            OFFSET   0.000032 -41.789100  -0.002222
            CHANNELS 3 Zrotation Xrotation Yrotation
            JOINT LeftAnkle
            {
                OFFSET   0.000087 -41.133200  -0.000135
                CHANNELS 3 Zrotation Xrotation Yrotation
                JOINT LeftToe
                {
                    OFFSET   0.000000  -6.358960  14.674500
                    CHANNELS 3 Zrotation Xrotation Yrotation
                    End Site
                    {
                        OFFSET   0.000000   0.000000   3.913200
                    }
                }
            }
        }
    }
    JOINT RightHip
    {
        OFFSET  -9.783040   0.000000   0.000000
        CHANNELS 3 Zrotation Xrotation Yrotation
        JOINT RightKnee
        {
            OFFSET   0.000047 -41.789100  -0.000896
            CHANNELS 3 Zrotation Xrotation Yrotation
            JOINT RightAnkle
            {
                OFFSET  -0.000117 -41.133300  -0.000248
                CHANNELS 3 Zrotation Xrotation Yrotation
                JOINT RightToe
                {
                    OFFSET   0.000000  -6.358970  14.674500
                    CHANNELS 3 Zrotation Xrotation Yrotation
                    End Site
                    {
                        OFFSET   0.000000   0.000000   3.913200
                    }
                }
            }
        }
    }
}
MOTION
Frames: 4
Frame Time:   0.016667
 -1.158020  89.566700   0.674650  -1.581390  -7.234910  -1.108860   2.021200   7.075630  -1.741840   4.309540  14.081100  -3.779640  -0.238682  -1.106440  -0.007794  -0.392038  -2.243580  12.510300 -14.628100  -1.791820   0.085340 -66.814600   3.303180 -50.362700 -10.166900 -22.705500 -108.497000 -31.232100 -46.255200 -31.500500  45.037800  55.777900 -83.500100 -51.650900  -0.001057  -0.001279 -27.739400  -0.001028   0.000039 -88.996500   5.002290  -0.084450 -82.563900   0.000606  -0.001064 -61.922900   0.000815   0.001305 -87.199100  -0.001284  -0.000077 -87.199100  -0.000611  -0.001343 -65.399400   0.000924   0.000365 -89.085000  -4.999070   0.077826 -89.203100  -0.000681  -0.003080 -66.902300   0.002546   0.001968 -88.984700  -9.996400   0.176297 -110.000000  -0.008202   0.000867 -80.000000  -0.000570  -0.000314   9.304970  -1.902940  14.988600  53.113400  -1.421250  50.883000 -19.182500 -38.653200  90.351500  14.256700 -43.821900  33.144400 -13.626200  21.168200  51.454600  83.097700   0.000230  -0.001365  48.683100  -0.000880   0.000662  88.996200   4.998890   0.087472  82.012100   0.000397  -0.000185  61.509100  -0.000651  -0.001476  89.008000  -0.011397  -0.001384  89.839200  -0.007905  -0.005581  67.379400  -0.006079  -0.011084  88.996100  -4.999830  -0.088535  90.813400  -0.004246   0.002150  68.110100   0.002227   0.000195  88.984600  -9.995890  -0.176324 110.000000  -0.000432  -0.000968  80.000000   0.002079  -0.004977   3.237450  10.147000   3.286520   1.035660   0.052759  13.038800  -4.815440  -2.411210   3.193030   0.000000   0.000000  -0.000000   0.221970   7.021110  -3.237210   1.259250   2.731070 -12.133100  -2.017140  -2.511780  -5.644240   0.000000   0.000000  -0.000000
 -1.173800  89.580500   0.691257  -1.578800  -7.236590  -1.092200   1.996920   7.045360  -1.722970   4.256680  14.022200  -3.736940  -0.221248  -1.154610  -0.007896  -0.363916  -2.341500  12.469800 -14.616300  -1.738740   0.066545 -66.895600   3.171360 -50.147700 -10.132500 -22.427200 -108.426000 -30.574700 -46.400500 -31.017500  45.200100  55.829500 -83.478800 -51.600300  -0.000515  -0.000525 -27.705800  -0.000499   0.000060 -88.996500   5.002240  -0.084448 -82.531300   0.000609  -0.001029 -61.898500   0.000807   0.001353 -87.077300  -0.001474  -0.000266 -87.077200  -0.000522  -0.001543 -65.308000   0.001091   0.000402 -89.097700  -4.999290   0.077779 -89.068700  -0.000516  -0.003129 -66.801500   0.002582   0.001963 -88.984700  -9.996340   0.176292 -110.000000  -0.008221   0.000818 -80.000000  -0.000518  -0.000293   9.322650  -1.921710  14.948600  53.150400  -1.637200  50.662100 -19.072800 -38.527800  90.168400  14.030400 -43.925300  32.843300 -13.630600  21.563300  51.535400  83.054600   0.000196  -0.000604  48.654500  -0.000974   0.000702  88.996200   4.998870   0.087469  81.816900   0.000773   0.000000  61.362600  -0.000471  -0.001272  89.008100  -0.011613  -0.001423  89.976300  -0.007768  -0.005741  67.482300  -0.006123  -0.010721  88.996100  -5.000000  -0.088652  90.683900  -0.004326   0.002256  68.012900   0.002373  -0.000000  88.984600  -9.995870  -0.176325 110.000000  -0.000410  -0.000917  80.000000   0.002137  -0.004928   3.242690  10.190300   3.272050   1.038920   0.002448  13.043000  -4.817790  -2.399700   3.189200  -0.000000   0.000000  -0.000000   0.230843   7.170830  -3.242850   1.271220   2.600310 -12.157100  -2.020080  -2.531800  -5.628530   0.000000   0.000000   0.000000
 -1.188430  89.592600   0.706188  -1.575490  -7.237100  -1.070160   1.976420   7.014610  -1.712450   4.212710  13.961800  -3.712710  -0.214115  -1.205180  -0.008000  -0.351567  -2.443990  12.458200 -14.591300  -1.697490   0.083177 -66.988300   3.061040 -49.919700 -10.029600 -22.258700 -108.148000 -29.941000 -46.605900 -30.566300  45.579300  55.926400 -83.482900 -51.513500   0.000036   0.000153 -27.648000   0.000045   0.000030 -88.996500   5.002190  -0.084442 -82.361000   0.000627  -0.001018 -61.770800   0.000786   0.001412 -86.840200  -0.001688  -0.000477 -86.840100  -0.000416  -0.001741 -65.130200   0.001276   0.000430 -88.880500  -4.999500   0.096805 -88.817700  -0.000319  -0.003191 -66.613200   0.002614   0.001959 -88.984700  -9.996280   0.176300 -110.000000  -0.008240   0.000775 -80.000000  -0.000478  -0.000275   9.338660  -1.925920  14.927300  53.108400  -1.719980  50.459500 -19.256000 -38.492900  89.644300  13.444200 -44.010300  32.348200 -13.625300  21.812800  51.585200  83.015900   0.000163  -0.000705  48.628800  -0.001050   0.000743  88.996200   4.998830   0.087473  81.597600   0.001193   0.000165  61.198200  -0.000253  -0.001044  89.008200  -0.011821  -0.001464  89.891000  -0.007629  -0.005897  67.418200  -0.006170  -0.010323  88.996100  -5.000180  -0.088759  90.577800  -0.004363   0.002364  67.933300   0.002520  -0.000231  88.984600  -9.995850  -0.176316 110.000000  -0.000388  -0.000869  80.000000   0.002192  -0.004875   3.250510  10.187100   3.265180   1.043320   0.024711  13.038600  -4.825510  -2.418350   3.177310   0.000000   0.000000  -0.000000   0.235320   7.154150  -3.245450   1.276180   2.627670 -12.186200  -2.022790  -2.548030  -5.619130   0.000000   0.000000   0.000000
 -1.201500  89.602700   0.718039  -1.572120  -7.237750  -1.047430   1.958650   6.985860  -1.708140   4.174720  13.905200  -3.699290  -0.211207  -1.259490  -0.008103  -0.347456  -2.554080  12.457500 -14.562800  -1.663940   0.111194 -67.093900   2.956730 -49.672000  -9.903370 -22.135000 -107.757000 -29.155300 -46.878400 -30.027000  46.088100  56.093100 -83.638800 -51.329900   0.000612   0.000839 -27.525700   0.000605  -0.000000 -88.996500   5.002140  -0.084435 -82.124900   0.000650  -0.001012 -61.593700   0.000764   0.001475 -86.561900  -0.001919  -0.000711 -86.561800  -0.000294  -0.001954 -64.921400   0.001477   0.000454 -88.521000  -4.999720   0.128166 -88.526600  -0.000094  -0.003252 -66.394900   0.002645   0.001955 -88.984700  -9.996220   0.176307 -110.000000  -0.008255   0.000736 -80.000000  -0.000438  -0.000255   9.356640  -1.932970  14.913800  53.040600  -1.737730  50.269500 -19.618400 -38.464600  88.879000  12.593200 -44.099500  31.705000 -13.602200  21.998400  51.610500  82.962600   0.000134  -0.000805  48.593300  -0.001124   0.000781  88.996200   4.998800   0.087479  81.309100   0.001646   0.000350  60.981800   0.000000  -0.000812  89.008200  -0.012021  -0.001508  89.593200  -0.007491  -0.006049  67.194900  -0.006236  -0.009902  88.996100  -5.000360  -0.088857  90.402200  -0.004370   0.002471  67.801700   0.002670  -0.000480  88.984600  -9.995840  -0.176307 110.000000  -0.000365  -0.000821  80.000000   0.002247  -0.004822   3.259520  10.183900   3.261730   1.045460   0.056762  13.029700  -4.834850  -2.445500   3.163950  -0.000000   0.000000   0.000000   0.242191   7.137480  -3.246880   1.281040   2.655050 -12.212700  -2.025220  -2.560480  -5.614820  -0.000000   0.000000  -0.000000
